HIERARCHY
ROOT joint_Root
{
	OFFSET 0.0 0.0 0.0
	CHANNELS 6 Xposition Yposition Zposition Zrotation Xrotation Yrotation 
	JOINT Hips
	{
		OFFSET 4.5925 91.4895 -427.239
		CHANNELS 6 Xposition Yposition Zposition Zrotation Xrotation Yrotation 
		JOINT Spine
		{
			OFFSET 15.7357 0.0 0.0
			CHANNELS 6 Xposition Yposition Zposition Zrotation Xrotation Yrotation 
			JOINT Chest
			{
				OFFSET 8.98455 -0.406207 0.0
				CHANNELS 6 Xposition Yposition Zposition Zrotation Xrotation Yrotation 
				JOINT Neck
				{
					OFFSET 16.3773 0.0 0.0
					CHANNELS 6 Xposition Yposition Zposition Zrotation Xrotation Yrotation 
					JOINT Head
					{
						OFFSET 6.45672 0.0 0.0
						CHANNELS 6 Xposition Yposition Zposition Zrotation Xrotation Yrotation 
						End Site
						{
							OFFSET 0.0 0.0 0.0
						}
					}
				}
				JOINT Shoulder_L
				{
					OFFSET 12.9942 -0.242716 4.98039
					CHANNELS 6 Xposition Yposition Zposition Zrotation Xrotation Yrotation 
					JOINT UpperArm_L
					{
						OFFSET 5.34809 0.0 0.0
						CHANNELS 6 Xposition Yposition Zposition Zrotation Xrotation Yrotation 
						JOINT LowerArm_L
						{
							OFFSET 24.3286 1.87007e-05 0.0
							CHANNELS 6 Xposition Yposition Zposition Zrotation Xrotation Yrotation 
							JOINT Hand_L
							{
								OFFSET 22.2916 0.0 0.0
								CHANNELS 6 Xposition Yposition Zposition Zrotation Xrotation Yrotation 
								End Site
								{
									OFFSET 0.0 0.0 0.0
								}
							}
						}
					}
				}
				JOINT Shoulder_R
				{
					OFFSET 12.9945 -0.242716 -4.98039
					CHANNELS 6 Xposition Yposition Zposition Zrotation Xrotation Yrotation 
					JOINT UpperArm_R
					{
						OFFSET -5.34813 0.0 0.0
						CHANNELS 6 Xposition Yposition Zposition Zrotation Xrotation Yrotation 
						JOINT LowerArm_R
						{
							OFFSET -24.3289 0.000322201 0.0
							CHANNELS 6 Xposition Yposition Zposition Zrotation Xrotation Yrotation 
							JOINT Hand_R
							{
								OFFSET -22.2915 -0.000108084 0.0
								CHANNELS 6 Xposition Yposition Zposition Zrotation Xrotation Yrotation 
								End Site
								{
									OFFSET 0.0 0.0 0.0
								}
							}
						}
					}
				}
			}
		}
		JOINT UpperLeg_L
		{
			OFFSET -2.19248 -6.46944 0.0
			CHANNELS 6 Xposition Yposition Zposition Zrotation Xrotation Yrotation 
			JOINT LowerLeg_L
			{
				OFFSET 39.0811 0.0 -1.23785e-05
				CHANNELS 6 Xposition Yposition Zposition Zrotation Xrotation Yrotation 
				JOINT Foot_L
				{
					OFFSET 40.9854 0.0 -1.26872e-05
					CHANNELS 6 Xposition Yposition Zposition Zrotation Xrotation Yrotation 
					JOINT Toes_L
					{
						OFFSET 11.7543 0.0 0.0
						CHANNELS 6 Xposition Yposition Zposition Zrotation Xrotation Yrotation 
						End Site
						{
							OFFSET 0.0 0.0 0.0
						}
					}
				}
			}
		}
		JOINT UpperLeg_R
		{
			OFFSET -2.19251 6.46944 0.0
			CHANNELS 6 Xposition Yposition Zposition Zrotation Xrotation Yrotation 
			JOINT LowerLeg_R
			{
				OFFSET -39.0811 -0.00228153 -0.0401928
				CHANNELS 6 Xposition Yposition Zposition Zrotation Xrotation Yrotation 
				JOINT Foot_R
				{
					OFFSET -40.9854 0.0 0.0
					CHANNELS 6 Xposition Yposition Zposition Zrotation Xrotation Yrotation 
					JOINT Toes_R
					{
						OFFSET -11.7543 0.0 0.0
						CHANNELS 6 Xposition Yposition Zposition Zrotation Xrotation Yrotation 
						End Site
						{
							OFFSET 0.0 0.0 0.0
						}
					}
				}
			}
		}
	}
}
MOTION
Frames:	6
Frame Time:	0.0333333
0.000000 0.000000 0.000000 0.000000 0.000000 -0.000000 -1.577950 91.308100 1.237730 91.574800 6.845210 5.719570 15.735700 0.000005 -0.000001 91.025300 84.781900 -87.889100 8.984550 -0.406207 -0.000000 2.674920 0.047466 6.264850 16.377300 -0.000001 -0.000001 10.161900 -7.564720 -2.266300 6.456720 -0.000001 -0.000000 0.028095 -10.212100 -5.469710 12.994200 -0.242716 4.980390 -86.291400 -7.212650 -62.696500 5.348090 -0.000007 -0.000001 -43.021500 -49.997000 -65.819900 24.328600 0.000019 0.000005 7.814140 6.148590 -52.007900 22.291600 -0.000001 0.000005 30.198800 5.137300 4.260200 12.994500 -0.242716 -4.980390 87.904700 6.389770 -71.802300 -5.348130 -0.000001 -0.000004 -67.492000 11.894000 7.787820 -24.328900 0.000322 -0.000009 -1.063140 -3.844770 -15.441200 -22.291500 -0.000108 -0.000004 9.733930 5.324060 -0.589567 -2.192480 -6.469440 -0.000000 -176.459000 -8.317450 -2.659480 39.081100 -0.000007 -0.000012 -0.178190 0.361596 26.233700 40.985400 -0.000006 -0.000013 -0.165501 10.340600 -67.813300 11.754300 -0.000000 0.000003 -0.000103 -0.001053 -16.617900 -2.192510 6.469440 -0.000001 172.899000 27.504100 -179.711000 -39.081100 -0.002282 -0.040193 -0.193124 0.377595 27.484400 -40.985400 0.000008 0.000006 2.824240 10.477900 -70.946600 -11.754300 -0.000006 -0.000006 -0.000951 -0.014716 -17.171600
0.000000 0.000000 0.000000 0.000000 0.000000 -0.000000 -1.937700 91.359300 1.134810 91.449200 8.358200 5.261780 15.735700 0.000005 -0.000001 87.670700 84.911200 -85.043800 8.984550 -0.406207 -0.000000 2.420920 -0.535715 5.260000 16.377300 -0.000001 -0.000001 10.067900 -7.003280 -3.847610 6.456720 -0.000001 -0.000000 0.482974 -10.523600 -4.135300 12.994200 -0.242716 4.980390 -85.272400 -8.727390 -61.409400 5.348090 -0.000007 -0.000001 -46.156800 -55.140400 -77.881100 24.328600 0.000019 0.000005 12.616400 5.653550 -66.213200 22.291600 -0.000001 0.000005 33.459800 5.210980 2.457150 12.994500 -0.242716 -4.980390 88.125700 5.928580 -72.421400 -5.348130 -0.000001 -0.000004 -68.344700 12.099500 8.114790 -24.328900 0.000322 -0.000009 -0.193452 -0.734423 -14.677800 -22.291500 -0.000108 -0.000004 7.908280 5.276250 0.726566 -2.192480 -6.469440 -0.000000 -176.247000 -7.379150 -3.399200 39.081100 -0.000007 -0.000012 -0.179261 0.366596 26.058300 40.985400 -0.000006 -0.000013 -0.314911 10.939500 -67.421000 11.754300 -0.000000 0.000003 -0.000097 -0.000999 -16.615900 -2.192510 6.469440 -0.000001 173.599000 28.805800 179.936000 -39.081100 -0.002282 -0.040193 -0.116498 0.231828 27.329500 -40.985400 0.000008 0.000006 4.432850 9.717000 -71.267600 -11.754300 -0.000006 -0.000006 -0.001102 -0.016849 -17.258300
0.000000 0.000000 0.000000 0.000000 0.000000 -0.000000 -2.117790 91.409700 1.001680 91.322300 8.539020 4.823700 15.735700 0.000005 -0.000001 86.202700 85.069500 -83.952600 8.984550 -0.406207 -0.000000 2.092520 -0.763924 4.509910 16.377300 -0.000001 -0.000001 10.043700 -6.353340 -5.018680 6.456720 -0.000001 -0.000000 0.939651 -10.375300 -2.926730 12.994200 -0.242716 4.980390 -84.159200 -10.281300 -60.182400 5.348090 -0.000007 -0.000001 -48.731600 -60.196500 -87.521600 24.328600 0.000019 0.000005 15.141600 4.017450 -75.483600 22.291600 -0.000001 0.000005 40.089700 5.293200 0.337232 12.994500 -0.242716 -4.980390 88.297800 5.540860 -72.892600 -5.348130 -0.000001 -0.000004 -68.685100 11.289700 8.137700 -24.328900 0.000322 -0.000009 -0.430626 -1.639990 -14.677300 -22.291500 -0.000108 -0.000004 10.371100 5.282190 0.576325 -2.192480 -6.469440 -0.000000 -176.134000 -7.032010 -3.927220 39.081100 -0.000007 -0.000012 -0.178799 0.368771 25.866700 40.985400 -0.000006 -0.000013 -0.502836 10.759100 -67.160800 11.754300 -0.000000 0.000003 -0.000095 -0.000985 -16.615400 -2.192510 6.469440 -0.000001 174.063000 29.388000 179.494000 -39.081100 -0.002282 -0.040193 -0.107818 0.217655 27.047100 -40.985400 0.000008 0.000006 4.784340 9.971760 -71.139900 -11.754300 -0.000006 -0.000006 -0.001154 -0.017575 -17.287800
0.000000 0.000000 0.000000 0.000000 0.000000 -0.000000 -2.051290 91.453000 0.927210 91.216800 7.458450 4.596330 15.735700 0.000005 -0.000001 87.779500 85.231300 -85.579800 8.984550 -0.406207 -0.000000 1.777370 -0.484171 4.402790 16.377300 -0.000001 -0.000001 10.059900 -5.544870 -5.953890 6.456720 -0.000001 -0.000000 1.278750 -10.128800 -2.551340 12.994200 -0.242716 4.980390 -83.478600 -10.886700 -58.815000 5.348090 -0.000007 -0.000001 -51.710900 -61.395900 -92.898200 24.328600 0.000019 0.000005 18.963100 4.514190 -77.103800 22.291600 -0.000001 0.000005 44.511200 5.329240 -0.769233 12.994500 -0.242716 -4.980390 88.503200 4.988960 -73.276600 -5.348130 -0.000001 -0.000004 -68.604700 9.235470 7.813470 -24.328900 0.000322 -0.000009 -0.881088 -3.192870 -15.414300 -22.291500 -0.000108 -0.000004 14.583900 5.327520 -0.687157 -2.192480 -6.469440 -0.000000 -176.123000 -7.418780 -3.969360 39.081100 -0.000007 -0.000012 -0.174537 0.363141 25.670600 40.985400 -0.000006 -0.000013 -0.614416 10.082900 -67.122100 11.754300 -0.000000 0.000003 -0.000089 -0.000928 -16.613200 -2.192510 6.469440 -0.000001 174.195000 29.102600 179.191000 -39.081100 -0.002282 -0.040193 -0.133132 0.270585 26.759300 -40.985400 0.000008 0.000006 4.327370 10.888400 -70.769000 -11.754300 -0.000006 -0.000006 -0.001247 -0.018861 -17.340100
0.000000 0.000000 0.000000 0.000000 0.000000 -0.000000 -1.831600 91.487800 0.873782 91.224700 5.671770 4.605950 15.735700 0.000005 -0.000001 91.058600 85.305000 -88.621300 8.984550 -0.406207 -0.000000 1.626200 0.042904 4.869560 16.377300 -0.000001 -0.000001 10.066300 -4.896410 -5.891560 6.456720 -0.000001 -0.000000 1.380980 -9.490970 -3.209900 12.994200 -0.242716 4.980390 -83.741700 -10.390000 -58.697900 5.348090 -0.000007 -0.000001 -48.999700 -60.320400 -87.564800 24.328600 0.000019 0.000005 17.573600 6.307370 -70.848000 22.291600 -0.000001 0.000005 41.802500 5.285260 0.503340 12.994500 -0.242716 -4.980390 88.619500 4.705420 -73.629200 -5.348130 -0.000001 -0.000004 -67.987400 7.618560 7.138990 -24.328900 0.000322 -0.000009 -1.632670 -5.281140 -17.187500 -22.291500 -0.000108 -0.000004 18.905600 5.362860 -1.755970 -2.192480 -6.469440 -0.000000 -176.256000 -8.288330 -3.599760 39.081100 -0.000007 -0.000012 -0.171110 0.359870 25.430300 40.985400 -0.000006 -0.000013 -0.664239 9.189630 -67.175200 11.754300 -0.000000 0.000003 -0.000087 -0.000912 -16.612600 -2.192510 6.469440 -0.000001 173.996000 28.128100 179.045000 -39.081100 -0.002282 -0.040193 -0.173134 0.353021 26.556500 -40.985400 0.000008 0.000006 3.456110 11.990000 -70.281400 -11.754300 -0.000006 -0.000006 -0.001397 -0.020891 -17.422600
0.000000 0.000000 0.000000 0.000000 0.000000 -0.000000 -1.629330 91.488200 0.771856 91.316700 4.150360 4.820880 15.735700 0.000005 -0.000001 92.015000 85.150300 -89.210400 8.984550 -0.406207 -0.000000 1.928660 0.198124 5.600550 16.377300 -0.000001 -0.000001 9.620600 -4.686890 -4.471320 6.456720 -0.000001 -0.000000 1.374780 -8.225310 -3.539630 12.994200 -0.242716 4.980390 -84.489300 -9.585310 -59.913500 5.348090 -0.000007 -0.000001 -42.884000 -59.112400 -75.194900 24.328600 0.000019 0.000005 11.120800 6.677890 -59.359100 22.291600 -0.000001 0.000005 34.270400 5.218930 2.321620 12.994500 -0.242716 -4.980390 88.483400 5.158140 -73.590700 -5.348130 -0.000001 -0.000004 -66.378100 7.476200 5.374570 -24.328900 0.000322 -0.000009 -2.794770 -7.953700 -19.420000 -22.291500 -0.000108 -0.000004 20.920500 5.388380 -2.561510 -2.192480 -6.469440 -0.000000 -176.395000 -9.265940 -3.188340 39.081100 -0.000007 -0.000012 -0.169399 0.357135 25.376400 40.985400 -0.000006 -0.000013 -0.634444 8.662210 -67.252800 11.754300 -0.000000 0.000003 -0.000100 -0.001027 -16.617000 -2.192510 6.469440 -0.000001 173.814000 26.969100 178.849000 -39.081100 -0.002282 -0.040193 -0.185902 0.375273 26.757300 -40.985400 0.000008 0.000006 3.195950 12.438900 -70.094900 -11.754300 -0.000006 -0.000006 -0.001370 -0.020526 -17.407800
